<?xml version="1.0" encoding="UTF-8"?>
<!DOCTYPE svg PUBLIC "-//W3C//DTD SVG 1.1//EN" "http://www.w3.org/Graphics/SVG/1.1/DTD/svg11.dtd">
<!-- Creator: CorelDRAW 2021 (64-Bit) -->
<svg xmlns="http://www.w3.org/2000/svg" xml:space="preserve" width="11.6425in" height="14.1303in" version="1.1" style="shape-rendering:geometricPrecision; text-rendering:geometricPrecision; image-rendering:optimizeQuality; fill-rule:evenodd; clip-rule:evenodd"
viewBox="0 0 671.41 814.88"
 xmlns:xlink="http://www.w3.org/1999/xlink"
 xmlns:xodm="http://www.corel.com/coreldraw/odm/2003">
 <defs>
  <style type="text/css">
   <![CDATA[
    .fil0 {fill:#FEFEFE}
    .fil1 {fill:#FEFEFE;fill-rule:nonzero}
   ]]>
  </style>
 </defs>
 <g id="Layer_x0020_1">
  <metadata id="CorelCorpID_0Corel-Layer"/>
  <g id="_2541919567952">
   <path class="fil0" d="M560.91 571.52c-82.15,13.94 -167.42,45.47 -225.21,100.89 -57.79,-55.42 -143.06,-86.95 -225.21,-100.89l0 -215c82.15,13.94 167.42,45.47 225.21,100.89 57.79,-55.42 143.06,-86.95 225.21,-100.89l0 215z"/>
   <path class="fil0" d="M335.71 725.09c-70.45,-68.14 -182.57,-100.3 -279.58,-108.13l0 -273.96c9.83,-64.28 61.96,-106.79 112.11,-142.58 56.33,-40.2 116.02,-74.99 167.47,-120.71 51.45,45.72 111.13,80.51 167.47,120.71 50.15,35.78 102.28,78.3 112.11,142.58l0 273.96c-97.01,7.84 -209.13,39.99 -279.58,108.13zm-326.89 -53.95c154.23,0 284.25,60.79 324.19,143.75l2.69 0 2.69 0c39.94,-82.95 169.96,-143.75 324.19,-143.75 2.95,0 5.89,0.02 8.82,0.07l0 -332.12c-21.32,-165.15 -228.48,-213.43 -335.71,-339.08 -107.23,125.65 -314.39,173.92 -335.71,339.08l0 332.12c2.93,-0.04 5.87,-0.07 8.82,-0.07z"/>
   <path class="fil1" d="M193.2 358.06l27.98 -151.41 45.93 0 27.6 151.41 -36.45 0 -3.4 -27.22 -23.63 0 -3.43 27.22 -34.59 0zm41.99 -54.63l16.41 0 -5.26 -46.28c-0.38,-3.06 -0.72,-6.36 -1.07,-9.92 -0.31,-3.53 -0.79,-8.88 -1.42,-16 -0.38,4.06 -0.79,8.29 -1.29,12.63 -0.5,4.38 -1.01,8.88 -1.58,13.48l-5.8 46.09zm67.86 54.63l0 -151.41 72.4 0 0 29.3 -38.18 0 0 30.05 34.21 0 0 28.92 -34.21 0 0 63.13 -34.21 0zm73.66 0l27.98 -151.41 45.93 0 27.6 151.41 -36.45 0 -3.4 -27.22 -23.63 0 -3.43 27.22 -34.59 0zm41.99 -54.63l16.41 0 -5.26 -46.28c-0.38,-3.06 -0.72,-6.36 -1.07,-9.92 -0.31,-3.53 -0.79,-8.88 -1.42,-16 -0.38,4.06 -0.79,8.29 -1.29,12.63 -0.5,4.38 -1.01,8.88 -1.58,13.48l-5.8 46.09z"/>
  </g>
 </g>
</svg>
