<?xml version="1.0" encoding="UTF-8" standalone="no"?>
<!-- Created with Inkscape (http://www.inkscape.org/) -->

<svg
   version="1.1"
   id="svg1"
   width="1024"
   height="1024"
   viewBox="0 0 1024 1024"
   sodipodi:docname="favicon-white.svg"
   inkscape:export-filename="favicon-white.svg"
   inkscape:export-xdpi="96"
   inkscape:export-ydpi="96"
   inkscape:version="1.4.2 (ebf0e940, 2025-05-08)"
   xmlns:inkscape="http://www.inkscape.org/namespaces/inkscape"
   xmlns:sodipodi="http://sodipodi.sourceforge.net/DTD/sodipodi-0.dtd"
   xmlns="http://www.w3.org/2000/svg"
   xmlns:svg="http://www.w3.org/2000/svg">
  <defs
     id="defs1" />
  <sodipodi:namedview
     id="namedview1"
     pagecolor="#ffffff"
     bordercolor="#000000"
     borderopacity="0.25"
     inkscape:showpageshadow="2"
     inkscape:pageopacity="0.0"
     inkscape:pagecheckerboard="0"
     inkscape:deskcolor="#d1d1d1"
     inkscape:zoom="0.828125"
     inkscape:cx="512"
     inkscape:cy="512"
     inkscape:window-width="1792"
     inkscape:window-height="1067"
     inkscape:window-x="0"
     inkscape:window-y="25"
     inkscape:window-maximized="0"
     inkscape:current-layer="g1">
    <inkscape:page
       x="0"
       y="0"
       width="1024"
       height="1024"
       id="page2"
       margin="0"
       bleed="0" />
  </sodipodi:namedview>
  <g
     inkscape:groupmode="layer"
     inkscape:label="Image"
     id="g1">
    <g
       id="g1193"
       transform="matrix(2.9619243,0,0,2.9317401,-1003.1354,-982.3413)">
      <path
         style="display:inline;fill:#ffffff;fill-opacity:1"
         d="m 498,678.90514 c -30.7514,-13.1646 -67.84733,-21.07269 -106,-22.59703 -13.76857,-0.5501 -36.7328,0.77417 -47,2.71033 -7.39375,1.3943 -7.55907,0.19252 -1.79085,-13.01844 11.59863,-26.56435 24.13617,-54.74753 25.86033,-58.13152 1.90816,-3.74511 2.87209,-4.21156 11.18052,-5.41026 4.3636,-0.62956 4.75,-0.51614 4.75,1.39425 0,2.19717 -3.22566,10.67258 -14.863,39.05248 -3.92535,9.57272 -7.137,17.56022 -7.137,17.75 0,0.18978 8.2125,0.34874 18.25,0.35325 33.80837,0.0152 58.94927,4.57422 88.06249,15.96912 11.21256,4.38859 29.22555,14.05122 36.38487,19.51777 2.52464,1.9277 5.17252,3.50491 5.88418,3.50491 0.71167,0 5.48446,-2.83798 10.6062,-6.30661 C 553.14908,652.72521 596.5465,641 643.19269,641 652.43671,641 660,640.75998 660,640.46662 c 0,-0.502 -6.98949,-17.83848 -17.39921,-43.15638 C 640.07036,591.15587 638,585.16098 638,583.98828 c 0,-2.00764 0.3359,-2.0926 5.75,-1.45435 3.1625,0.37282 6.69278,1.26989 7.84506,1.99349 2.00302,1.25785 7.26573,12.57103 26.40208,56.75623 3.9979,9.231 6.99083,17.06171 6.65097,17.40158 -0.33987,0.33986 -6.81223,0.0245 -14.38302,-0.70083 -52.79693,-5.05819 -104.00462,3.25346 -155.26509,25.20148 -3.43936,1.47262 -3.7339,1.39845 -17,-4.28074 z m 8.38063,-7.77112 C 477.70542,648.42022 434.73184,632.78697 386.25,627.432 c -5.10055,-0.56337 -6.25,-1.02194 -6.25,-2.4934 0,-2.68099 23.15925,-60.18669 25.27439,-62.75771 1.13283,-1.37699 10.36779,-0.77998 12.03254,0.77786 0.44382,0.41532 -1.73139,7.457 -4.83378,15.64818 -8.44839,22.3061 -10.72878,29.28453 -10.10266,30.91616 0.33249,0.86647 1.85809,1.47691 3.69104,1.47691 4.89811,0 21.84668,3.70428 34.50758,7.54197 12.3983,3.75809 32.20384,12.69257 41.93387,18.91678 7.68271,4.91456 18.47565,15.3038 24.1963,23.29125 2.46195,3.4375 4.79133,6.25 5.17641,6.25 0.38507,0 2.569,-2.84255 4.85317,-6.31678 4.78685,-7.28079 16.99997,-19.25706 24.57041,-24.09391 8.72372,-5.57369 21.37162,-11.53482 32.04941,-15.10533 14.00644,-4.68357 31.83642,-9.1566 39.87305,-10.003 3.69695,-0.38935 7.15316,-1.22777 7.68047,-1.86314 0.64294,-0.77469 -1.81467,-8.54748 -7.46101,-23.59724 -4.63087,-12.34312 -8.08708,-22.7392 -7.68048,-23.10242 1.5252,-1.36242 11.06765,-1.82991 12.0946,-0.59252 0.97374,1.17328 6.31341,13.87675 19.75381,46.99574 3.53136,8.70177 6.19521,16.18618 5.91967,16.63201 -0.27554,0.44584 -3.54474,1.13143 -7.26489,1.52353 -45.77567,4.82475 -91.18469,21.38263 -117.49977,42.84494 -3.15473,2.57297 -6.13345,4.67812 -6.61937,4.67812 -0.48593,0 -3.07979,-1.73969 -5.76413,-3.86598 z M 496,628.98258 c -14.89123,-13.63329 -41.60231,-28.06434 -64.25,-34.71199 -9.89854,-2.90547 -12.75,-4.12457 -12.75,-5.45111 0,-2.12955 6.41327,-16.33883 7.74626,-17.16266 1.52887,-0.94489 14.64707,3.02829 22.84876,6.92032 11.26451,5.34548 24.33484,14.54526 31.58739,22.23334 12.01629,12.73791 25.96587,34.3291 22.06759,34.15627 -0.4125,-0.0183 -3.675,-2.71116 -7.25,-5.98417 z m 23,4.9889 c 0,-1.9632 5.84612,-12.51027 10.91629,-19.69425 10.40985,-14.74981 26.73374,-28.1301 43.8156,-35.91455 8.5973,-3.91792 20.71736,-7.51125 22.72996,-6.73894 1.78683,0.68567 8.95327,17.38985 7.87126,18.34703 -0.45821,0.40534 -5.78311,2.23328 -11.83311,4.06207 -14.10303,4.26306 -29.26155,10.9956 -42.3984,18.83091 -9.91584,5.91418 -25.14272,17.07102 -28.00413,20.51881 C 520.57943,635.21168 519,635.51198 519,633.97148 Z M 510.62257,628.25 c -1.35828,-6.96433 -5.68301,-35.66114 -6.59332,-43.75 -2.70089,-23.99976 0.93109,-44 7.99026,-44 5.54699,0 9.78045,17.5035 8.46523,35 -0.486,6.46525 -4.59532,36.90085 -7.05464,52.25 -0.63605,3.96978 -2.08063,4.22705 -2.80753,0.5 z m 12.69309,-36.86697 c 1.60322,-10.14193 2.71287,-27.50911 2.11639,-33.12349 -0.37444,-3.52443 -1.8826,-8.8193 -3.46518,-12.16568 -1.5412,-3.25887 -2.53924,-6.18816 -2.21786,-6.50954 0.32138,-0.32137 2.23088,-0.58432 4.24334,-0.58432 8.29968,0 11.59079,10.39938 8.75617,27.66802 -1.95153,11.8888 -6.76234,27.50325 -8.66961,28.13901 -1.07721,0.35907 -1.24341,-0.38652 -0.76325,-3.424 z m -27.17078,-4.72536 c -6.75989,-18.06741 -7.21209,-42.81804 -0.85609,-46.85731 1.49186,-0.94809 8.71121,-1.05485 8.71121,-0.12882 0,0.36935 -1.20158,3.63185 -2.67018,7.25 -2.30579,5.68071 -2.68107,8.07961 -2.75,17.57846 -0.0439,6.05 0.28861,14.7125 0.7389,19.25 0.96517,9.72567 -0.21751,10.80917 -3.17384,2.90767 z M 448.64498,540.25 c -2.83516,-8.88466 -4.01466,-16.73221 -3.94542,-26.25 0.0741,-10.18028 1.97907,-17.36316 6.77572,-25.54804 3.3509,-5.71786 13.0143,-15.78877 14.63238,-15.24941 0.7459,0.24864 2.03076,4.07328 2.97892,8.86733 1.96632,9.94204 5.45429,21.41752 9.78908,32.20615 1.71839,4.27682 3.12434,8.19252 3.12434,8.70155 0,0.50904 -3.2625,3.02918 -7.25,5.60031 -3.9875,2.57113 -10.72539,7.31793 -14.97308,10.54845 -4.2477,3.23051 -8.14904,5.87366 -8.66964,5.87366 -0.5206,0 -1.62864,-2.1375 -2.4623,-4.75 z m 117.10878,-0.20432 c -3.59856,-2.72418 -10.4153,-7.47725 -15.1483,-10.56238 -4.733,-3.08512 -8.60546,-6.19407 -8.60546,-6.90877 0,-0.7147 1.28066,-4.40508 2.8459,-8.20084 3.4408,-8.34402 8.63061,-25.71424 10.06325,-33.68156 1.69321,-9.41639 2.84913,-9.84777 8.87393,-3.31164 9.43037,10.23075 14.58387,20.91839 15.7785,32.72241 0.93,9.18924 -3.04876,31.39668 -6.07513,33.90834 -0.83537,0.6933 -3.13913,-0.48814 -7.73269,-3.96556 z m -73.167,-9.27327 C 490.24,527.19028 481.3527,504.36443 478.65125,494.98092 472.65207,474.14268 471.50012,465.89684 471.52916,444 c 0.0226,-17.02994 0.41097,-22.53125 2.29444,-32.5 2.91342,-15.42012 8.78991,-32.97177 15.25017,-45.54855 5.38572,-10.4849 18.6961,-29.26543 21.50541,-30.34346 2.02686,-0.77778 6.53753,3.80081 13.60776,13.81269 10.28957,14.57065 20.25771,38.281 24.67966,58.70334 8.03386,37.10361 3.48718,74.71857 -13.76466,113.87598 l -4.62606,10.5 -18.2002,0.27241 c -17.96576,0.26891 -18.21938,0.24314 -19.68892,-2 z m 31.11469,-99.73193 c 5.88551,-3.5886 8.15897,-12.54215 4.82279,-18.9936 -3.16184,-6.11432 -12.17695,-8.82919 -18.4856,-5.56686 -9.20254,4.75882 -10.42094,16.46509 -2.44279,23.47 2.82408,2.47957 4.35558,3.04928 8.18895,3.04624 2.91088,-0.002 5.94027,-0.7507 7.91665,-1.95578 z"
         id="path1194" />
      <path
         style="fill:#ffffff;fill-opacity:1"
         d="m 494.5,675.8752 c -39.58225,-16.54574 -97.25989,-24.4725 -140.91364,-19.36604 -7.09576,0.83003 -13.09069,1.31984 -13.32206,1.08847 -0.40605,-0.40605 25.91364,-61.10578 29.7927,-68.70936 1.76655,-3.46273 2.32042,-3.79151 7.47123,-4.43506 3.05978,-0.3823 5.78257,-0.47575 6.05064,-0.20767 0.26808,0.26808 -4.48887,12.80977 -10.571,27.87042 -6.08214,15.06065 -10.93455,27.99804 -10.78315,28.74977 0.22067,1.09563 4.54029,1.41468 21.77528,1.60833 13.85864,0.15571 25.58724,0.84662 33,1.94397 30.02484,4.44474 60.79816,15.47843 82.27773,29.50044 6.96954,4.54976 9.94812,7.15595 8.03129,7.02718 C 506.86406,680.91576 501.1,678.63406 494.5,675.8752 Z m 20.5,4.7497 c 0,-0.20631 3.34198,-2.68541 7.42662,-5.50912 C 544.0618,660.15939 576.11218,648.7819 609,644.38329 c 7.4902,-1.00178 20.4053,-1.73741 32.22457,-1.83546 10.84851,-0.09 19.96418,-0.40325 20.25704,-0.69611 0.29287,-0.29287 -4.64569,-13.28781 -10.97456,-28.87765 C 644.17817,597.38423 639,584.42444 639,584.17455 c 0,-1.01844 11.41208,0.81057 12.60094,2.01954 2.13128,2.16734 31.97093,70.56737 31.14533,71.39298 -0.27801,0.27801 -4.27215,0.0108 -8.87587,-0.5937 -13.88844,-1.82378 -42.22942,-2.36731 -55.8704,-1.0715 -35.51309,3.37352 -66.62854,10.57224 -93.76171,21.69223 C 515.9519,681.01011 515,681.32034 515,680.6249 Z M 510.05766,615.75 c -6.98118,-40.96792 -7.03357,-64.38344 -0.16305,-72.86817 1.57871,-1.94964 2.12345,-2.11173 3.43597,-1.02244 6.13593,5.09238 7.08296,31.34985 2.25024,62.39061 -1.60555,10.3125 -3.2271,18.75 -3.60345,18.75 -0.37635,0 -1.24022,-3.2625 -1.91971,-7.25 z m 16.3245,-46.4655 c 0.11436,-16.28887 0.0377,-16.95561 -2.59732,-22.57925 -2.30973,-4.92946 -2.48686,-5.88236 -1.18623,-6.38146 2.58089,-0.99038 6.42989,1.50017 7.95335,5.14633 2.30227,5.51011 1.84988,18.68934 -1.03143,30.04779 -1.36371,5.3759 -2.65424,9.94913 -2.86784,10.16273 -0.2136,0.2136 -0.33534,-7.16466 -0.27053,-16.39614 z m -30.34777,12.30596 c -4.98126,-13.10172 -5.21657,-35.26542 -0.42527,-40.05672 1.38796,-1.38796 6.39088,-2.21368 6.39088,-1.05479 0,0.26342 -1.17305,3.97339 -2.60677,8.24438 -2.41169,7.1843 -2.5785,8.79484 -2.22901,21.52105 0.20777,7.56559 0.24468,13.75562 0.082,13.75562 -0.16266,0 -0.70799,-1.08429 -1.21185,-2.40954 z M 450.0275,540.57233 C 448.18934,535.7376 446,521.6189 446,514.59963 c 0,-13.42554 4.18741,-24.08055 13.48384,-34.31015 5.25506,-5.78255 7.51616,-6.33606 7.51616,-1.83994 0,3.89835 4.85192,21.28637 9.04345,32.40934 2.1761,5.77468 3.95655,11.05104 3.95655,11.72525 0,0.6742 -1.9269,2.35506 -4.282,3.73524 -2.3551,1.38018 -8.60737,5.69794 -13.89394,9.59503 -5.28658,3.89708 -9.89581,7.0856 -10.24276,7.0856 -0.34694,0 -1.04615,-1.09245 -1.5538,-2.42767 z M 568.5,540.40442 c -1.65,-1.38539 -8.08554,-5.93355 -14.30121,-10.10702 -8.70816,-5.84705 -11.14054,-7.95632 -10.60099,-9.19277 C 549.04295,508.62621 557,482.37743 557,476.89332 c 0,-3.28125 2.68554,-2.07427 7.46865,3.35668 10.58501,12.01866 14.03624,21.8337 13.2469,37.67322 -0.53338,10.70348 -3.38084,24.19792 -5.21555,24.71711 -0.55,0.15564 -2.35,-0.85052 -4,-2.23591 z m -74.32548,-9.69413 c -3.72406,-4.48723 -14.61063,-35.71697 -18.026,-51.71029 -7.99064,-37.41816 -3.28016,-76.6359 13.27228,-110.5 6.15303,-12.58828 19.86983,-31.78326 22.36855,-31.30205 2.6834,0.51677 14.94697,17.65015 20.76741,29.01405 6.28661,12.27405 12.31552,29.5753 15.60712,44.788 1.99366,9.21405 2.27122,13.31683 2.26633,33.5 -0.005,21.30137 -0.20138,23.85279 -2.65673,34.54709 -4.65351,20.26842 -15.47349,49.87192 -19.06136,52.15199 -0.66667,0.42366 -8.46952,0.77719 -17.33968,0.78561 -11.96238,0.0114 -16.40399,-0.31778 -17.19792,-1.2744 z m 31.04237,-82.67086 c 4.86859,-2.43679 10.58021,-7.57567 9.55711,-8.59876 -0.3191,-0.31911 -2.5363,0.42246 -4.92709,1.64792 -5.2039,2.66738 -13.57033,2.95504 -18.98647,0.65281 -5.13398,-2.18228 -11.38223,-8.12211 -13.80201,-13.1207 -3.21082,-6.63268 -2.85299,-15.90713 0.88815,-23.01915 C 499.5672,402.5207 500.40799,400 499.815,400 c -0.59298,0 -2.9772,1.9125 -5.29824,4.25 -15.004,15.11035 -8.49182,39.05096 12.47677,45.86811 4.39608,1.42922 13.22739,0.42186 18.22336,-2.07868 z M 523.01523,432.75 c 14.22436,-7.20989 9.28015,-29.08333 -6.57391,-29.08333 -14.1653,0 -20.73699,17.26538 -10.28582,27.02326 5.05098,4.71592 10.34404,5.36268 16.85973,2.06007 z"
         id="path1193" />
    </g>
    <path
       d="m 477.5394,190.34263 c -1.75636,0 -8.81666,5.60799 -15.6914,12.46093 -44.44072,44.29962 -25.1523,114.48655 36.95507,134.47266 13.02086,4.1901 39.17888,1.23718 53.97657,-6.09375 14.42039,-7.14404 31.33698,-22.20955 28.30664,-25.20899 -0.94515,-0.93554 -7.51241,1.23931 -14.59375,4.83204 -15.41356,7.82006 -40.19413,8.66165 -56.23633,1.91211 -15.20646,-6.39788 -33.71366,-23.81028 -40.88086,-38.46485 -9.51021,-19.44529 -8.45011,-46.63573 2.63086,-67.48633 4.80015,-9.03225 7.28959,-16.42382 5.5332,-16.42382 z"
       style="display:inline;fill:#b9c1bc;fill-opacity:1"
       id="path1195" />
  </g>
</svg>
