<?xml version="1.0" encoding="UTF-8" standalone="no"?>
<!-- Created with Inkscape (http://www.inkscape.org/) -->

<svg
   version="1.1"
   id="svg1"
   width="1024"
   height="1024"
   viewBox="0 0 1024 1024"
   sodipodi:docname="tft.svg"
   inkscape:version="1.4.2 (ebf0e940, 2025-05-08)"
   xmlns:inkscape="http://www.inkscape.org/namespaces/inkscape"
   xmlns:sodipodi="http://sodipodi.sourceforge.net/DTD/sodipodi-0.dtd"
   xmlns="http://www.w3.org/2000/svg"
   xmlns:svg="http://www.w3.org/2000/svg">
  <defs
     id="defs1" />
  <sodipodi:namedview
     id="namedview1"
     pagecolor="#ffffff"
     bordercolor="#000000"
     borderopacity="0.25"
     inkscape:showpageshadow="2"
     inkscape:pageopacity="0.0"
     inkscape:pagecheckerboard="0"
     inkscape:deskcolor="#d1d1d1"
     showgrid="false"
     inkscape:zoom="0.84082031"
     inkscape:cx="512"
     inkscape:cy="512"
     inkscape:window-width="1920"
     inkscape:window-height="1080"
     inkscape:window-x="0"
     inkscape:window-y="0"
     inkscape:window-maximized="0"
     inkscape:current-layer="g1" />
  <g
     inkscape:groupmode="layer"
     inkscape:label="Image"
     id="g1">
    <path
       style="display:inline;fill:#0a9369;fill-opacity:1;stroke-width:2.93484"
       d="m 470.27861,1004.905 c -96.57573,-41.38631 -218.94164,-65.23086 -334.52885,-65.18722 -48.809765,0.0175 -107.6685,4.15369 -123.769632,8.6957 -2.4311893,0.68581 -6.2115263,0.13094 -8.4007163,-1.23285 -4.18745071,-2.6088 -4.22564248,-2.51486 61.3604723,-150.83504 14.927826,-33.75862 29.623907,-63.52335 32.657943,-66.14386 6.439023,-5.56138 37.522883,-10.18119 41.560193,-6.17687 1.68527,1.67151 -9.77014,33.43331 -29.80441,82.63719 -17.897969,43.95717 -32.541772,81.49635 -32.541772,83.42039 0,2.57305 18.119991,3.88917 68.515332,4.97649 89.56191,1.93233 134.73334,9.27333 212.0972,34.46872 35.11654,11.43657 110.62538,48.54826 133.36838,65.54895 9.69284,7.2456 19.36372,13.1738 21.49082,13.1738 2.12707,0 10.77282,-5.0101 19.21279,-11.13349 89.94469,-65.25705 223.78807,-102.8567 366.1387,-102.8567 28.30187,0 51.45796,-0.47052 51.45796,-1.04561 0,-0.5751 -15.22092,-38.23288 -33.82426,-83.68397 -18.60337,-45.45109 -33.0302,-83.91271 -32.05961,-85.47031 2.01848,-3.23928 32.08401,-0.24523 40.0889,3.99234 2.83111,1.49865 7.74857,7.78182 10.92774,13.96257 8.40876,16.34791 88.53961,199.13836 88.53961,201.9721 0,4.38575 -6.0571,4.51024 -37.77848,0.7763 -51.70788,-6.08655 -141.61726,-5.29391 -198.06393,1.74612 -97.84617,12.20338 -183.91878,34.70775 -251.90388,65.86215 -12.5932,5.7709 -23.04148,10.4243 -23.21841,10.3408 -0.17682,-0.084 -18.86188,-8.097 -41.52209,-17.8077 z m 11.73141,-32.14133 C 412.00424,919.2595 293.71307,875.8928 171.29023,858.85072 c -41.22212,-5.73838 -47.32806,-7.26956 -47.32806,-11.86842 0,-7.14748 54.40604,-142.9841 69.72153,-174.07509 5.3167,-10.79305 5.73681,-11.00315 21.17447,-10.58872 8.66258,0.23266 17.09801,1.75966 18.74542,3.3936 2.02908,2.01251 -4.71495,23.36018 -20.90723,66.1802 -13.14637,34.76515 -23.90248,65.10831 -23.90248,67.42921 0,4.73143 3.35375,5.67644 36.8362,10.37973 48.77617,6.85163 130.11465,34.25995 174.87193,58.92592 40.95778,22.57207 82.75417,59.22622 101.71903,89.20448 4.32216,6.83211 8.83636,12.41049 10.03162,12.39643 1.19529,-0.0146 7.42491,-8.10914 13.84366,-17.98907 31.81451,-48.96997 94.82389,-92.1485 170.32051,-116.71583 35.2002,-11.45449 91.92915,-25.22272 114.23998,-27.72629 28.4628,-3.19389 28.37714,-2.84318 11.36315,-46.52517 -25.19402,-64.68353 -35.01384,-93.23932 -32.75587,-95.25312 1.19352,-1.0644 8.95164,-2.77791 17.24028,-3.80774 10.82816,-1.34534 15.98231,-0.78247 18.3103,1.99968 7.6729,9.16975 77.99756,182.44725 75.60471,186.28732 -0.83406,1.33854 -9.12067,3.29537 -18.41468,4.34852 -140.24039,15.89119 -260.11537,58.06091 -341.84046,120.253 -13.39735,10.19528 -25.99533,18.40137 -27.99551,18.23576 -2.00014,-0.16572 -15.57157,-9.42277 -30.15871,-20.57145 z m -19.15482,-115.667 c -46.01036,-40.47264 -119.84065,-79.71065 -186.39117,-99.05992 -27.55978,-8.01287 -37.57925,-12.15316 -37.59676,-15.53589 -0.0466,-9.0249 18.80485,-49.86777 23.73309,-51.41915 5.69529,-1.79286 48.57422,10.98585 66.17108,19.72018 63.99134,31.7626 108.98602,73.36894 147.89141,136.75451 22.03948,35.90721 18.75048,38.17974 -13.80765,9.54027 z m 70.7255,14.86744 c 0,-7.55029 16.74415,-35.30342 39.08468,-64.78215 29.18423,-38.50908 67.59637,-69.48842 116.22678,-93.73675 21.09677,-10.51937 66.7243,-24.33316 72.77139,-22.03164 3.73646,1.4221 18.65547,31.14947 23.67907,47.1826 2.39786,7.65277 1.40868,8.16537 -38.11197,19.75002 -64.65642,18.95264 -132.9149,55.26327 -187.76194,99.88147 -12.50468,10.17257 -23.44503,18.4956 -24.31189,18.4956 -0.86686,0 -1.57612,-2.14161 -1.57612,-4.75915 z M 508.78702,856.9942 c -13.32026,-63.47273 -23.46928,-152.42298 -21.59329,-189.25288 1.78724,-35.08692 6.35572,-51.62613 17.54069,-63.50186 8.06769,-8.56592 8.56949,-8.69783 14.12347,-3.7126 21.75564,19.52774 24.8271,81.88295 9.21365,187.05026 -11.35118,76.4581 -11.54346,77.45484 -14.94112,77.45484 -1.46113,0 -3.41566,-3.61699 -4.3434,-8.03776 z m 37.76556,-111.7157 c 9.34862,-69.89767 7.84853,-105.2777 -5.57785,-131.55699 -3.92126,-7.67502 -6.305,-14.77242 -5.29719,-15.772 4.51768,-4.48078 24.40274,-1.59688 29.9879,4.3491 17.57974,18.71549 14.55525,74.89247 -7.52554,139.78086 -7.47749,21.97388 -14.35227,23.87188 -11.58732,3.19903 z m -74.0445,5.10325 c -1.63603,-2.04831 -5.71824,-12.27343 -9.07163,-22.72253 -15.21218,-47.40096 -18.16614,-93.94252 -7.4441,-117.28624 5.4708,-11.91089 7.48777,-13.67365 16.89126,-14.76249 16.74393,-1.9388 18.40304,0.76286 11.12924,18.12262 -11.30308,26.97603 -13.5124,49.0362 -9.59539,95.8103 1.94003,23.16628 2.97333,42.66993 2.29626,43.34148 -0.67708,0.67158 -2.56964,-0.45485 -4.20564,-2.50314 z M 327.58428,607.09272 c -14.34614,-37.51717 -17.4194,-97.35884 -6.60709,-128.65171 11.05505,-31.99551 46.67539,-78.42718 57.11712,-74.45304 2.34087,0.89093 5.59586,10.0349 7.68265,21.58231 4.29115,23.74523 18.25422,69.80593 30.21219,99.66243 4.70602,11.74996 8.5564,22.58089 8.5564,24.0687 0,1.48783 -9.56998,8.84537 -21.26665,16.35007 -11.69665,7.50474 -31.50992,21.3788 -44.02946,30.83127 -12.51956,9.45247 -24.20002,17.18632 -25.95661,17.18632 -1.75662,0 -4.32545,-2.95936 -5.70855,-6.57635 z m 345.97398,-5.38808 c -8.10397,-6.413 -27.66399,-20.29048 -43.46672,-30.83887 -15.80273,-10.54838 -28.73223,-21.05576 -28.73223,-23.34974 0,-2.29398 3.16891,-11.69407 7.04205,-20.88904 10.94913,-25.99376 24.32049,-69.70647 29.9244,-97.82655 6.30176,-31.62195 9.35675,-32.39893 31.58763,-8.03368 33.95575,37.21583 47.28996,78.4088 41.10439,126.98278 -4.00076,31.41743 -14.07113,65.98457 -19.15983,65.76734 -1.96086,-0.0839 -10.19573,-5.39921 -18.29969,-11.81224 z M 455.73238,572.01883 c -14.81753,-22.59981 -42.25631,-101.39707 -54.19707,-155.6404 -6.97218,-31.67257 -7.72874,-41.16792 -7.80153,-97.91461 -0.0902,-70.33508 4.78659,-105.21875 22.06536,-157.83251 13.69802,-41.71049 43.59434,-99.791947 66.80029,-129.777143 27.58065,-35.6379384 27.84004,-35.7434816 43.8103,-17.825487 39.01778,43.776396 73.51285,112.903 90.89105,182.14161 12.6077,50.23195 14.86774,69.8261 14.72658,127.67777 -0.11965,49.04151 -1.08036,59.97565 -8.21763,93.53037 -9.56309,44.95918 -26.93106,97.52454 -44.64565,135.12311 l -12.76521,27.09364 h -53.17736 c -51.90471,0 -53.28052,-0.15754 -57.48913,-6.57635 z m 91.1845,-291.59779 c 25.67566,-15.7388 24.67524,-56.56083 -1.7303,-70.60658 -32.59108,-17.33603 -70.43125,13.64468 -58.92,48.23923 3.24904,9.76425 15.4224,23.20079 23.73895,26.20224 10.03401,3.62132 27.75033,1.78067 36.91135,-3.83489 z"
       id="path119" />
    <path
       style="display:inline;fill:#0e905c;stroke-width:2.93484;fill-opacity:1"
       d="m 464.32865,998.88504 c -97.3279,-41.21366 -237.02087,-66.28974 -349.20717,-62.68567 -28.363869,0.91119 -63.902019,3.18232 -78.973653,5.0469 -15.071663,1.86459 -28.2208304,2.57902 -29.220388,1.58762 -3.7892661,-3.75828 87.264424,-206.1237 94.868061,-210.84278 3.27731,-2.03402 12.25773,-4.57904 19.9565,-5.65558 11.38972,-1.59262 13.99776,-1.13511 13.99776,2.45564 0,2.42712 -14.58714,40.23873 -32.41586,84.02582 -17.828719,43.78707 -32.415854,80.68232 -32.415854,81.98943 0,1.30715 24.209516,2.37661 53.798914,2.37661 100.38144,0 178.91091,14.12309 262.76168,47.25625 33.43705,13.21245 81.44183,38.66049 103.37207,54.79901 8.10397,5.96371 16.45114,11.86021 18.5493,13.10331 2.39067,1.4165 9.54152,-2.0201 19.15482,-9.2053 49.55102,-37.03588 114.74888,-65.83242 193.62721,-85.52121 53.74667,-13.41567 95.10614,-18.27464 165.02617,-19.38747 47.90583,-0.76245 63.55662,-1.90691 64.17161,-4.69248 0.44733,-2.02625 -13.80827,-39.04233 -31.67914,-82.25792 -17.87086,-43.21562 -32.49247,-80.447 -32.49247,-82.73642 0,-3.30349 2.8889,-3.7418 13.99776,-2.12372 23.63239,3.44224 25.27078,4.81795 36.7894,30.89139 59.68383,135.09957 78.87623,179.69109 78.87623,183.26023 0,3.37572 -3.3168,3.83525 -16.94462,2.34756 -99.77232,-10.8917 -184.31523,-7.82557 -280.69184,10.17984 -59.74545,11.16189 -138.1081,34.59157 -183.71898,54.9302 -11.09143,4.9459 -22.36331,8.8432 -25.04861,8.6607 -2.6853,-0.1825 -23.4478,-8.1934 -46.1389,-17.80196 z m 27.45384,-27.06868 C 465.31383,950.50429 453.62826,943.45423 406.90555,920.60909 359.82571,897.5893 347.06108,892.8816 283.80805,875.20973 242.68053,863.71938 212.98,858.17315 142.38027,848.79968 c -6.88837,-0.91455 -12.52431,-2.22749 -12.52431,-2.91762 0,-3.61712 24.77665,-66.01652 30.69449,-77.3033 3.79289,-7.23399 9.08327,-19.84773 11.75643,-28.03053 2.67316,-8.18279 10.6347,-27.89228 17.69231,-43.79884 l 12.83199,-28.92105 11.39945,0.95959 c 6.2697,0.52774 11.75597,1.30019 12.19169,1.71651 1.23434,1.17936 -15.37607,50.20094 -25.78283,76.09179 -5.15565,12.82667 -12.09804,31.12843 -15.42747,40.67054 -7.5338,21.5917 -5.70555,23.50758 24.91506,26.10921 28.5106,2.42235 108.86108,24.75922 143.57999,39.91421 56.0217,24.45375 75.98356,37.24201 109.50998,70.15573 17.21733,16.9027 34.15208,36.32209 37.6328,43.15419 3.87827,7.61241 8.35999,12.422 11.57526,12.422 3.22694,0 7.65421,-4.78191 11.50074,-12.422 7.88725,-15.66596 42.29523,-54.43527 59.75208,-67.32586 20.19903,-14.91546 63.71113,-38.79298 88.4817,-48.55483 39.9244,-15.7338 128.04012,-38.14452 150.39035,-38.24919 5.7682,-0.0263 12.95108,-1.83571 15.96201,-4.01938 5.95503,-4.31885 4.39995,-9.55805 -30.48708,-102.71281 -6.62244,-17.68309 -12.06995,-32.99936 -12.10564,-34.03617 -0.11228,-3.26415 23.74161,-4.29509 26.17406,-1.13125 5.40305,7.02761 72.41832,173.63119 70.5435,175.37498 -0.55454,0.51582 -25.44043,4.46502 -55.30192,8.77604 -30.82827,4.45056 -69.67402,12.24833 -89.88032,18.04228 -40.54664,11.62626 -104.86016,32.88986 -109.25908,36.12368 -1.6208,1.19152 -16.20793,9.08098 -32.41586,17.53218 -16.20793,8.4512 -32.78422,17.11834 -36.8362,19.26033 -4.05198,2.14196 -17.97606,12.48701 -30.9424,22.98895 -12.96635,10.50194 -24.23822,19.07464 -25.04862,19.05047 -0.8104,-0.0234 -10.33686,-7.18059 -21.16994,-15.90317 z M 465.57905,851.53372 c -33.31896,-35.68997 -149.09744,-94.16659 -208.3024,-105.20803 -5.28547,-0.98572 -10.31888,-2.92992 -11.18539,-4.32049 -1.26445,-2.02923 14.41639,-42.0585 18.06168,-46.10685 1.87737,-2.08494 49.45433,14.48841 68.68648,23.92683 28.59102,14.03139 60.27599,35.59082 77.47457,52.71603 13.88899,13.82975 50.09128,59.52401 62.27843,78.60734 6.50796,10.19057 2.35363,10.41873 -7.01337,0.38517 z m 85.72216,-1.49386 c 33.54022,-65.02506 105.50524,-123.02077 182.4161,-147.00675 13.63797,-4.25326 25.69737,-6.69987 26.79872,-5.43695 3.33798,3.82779 18.65718,41.737 17.37702,43.00162 -0.65639,0.64842 -19.62279,7.25377 -42.14757,14.67856 -56.83439,18.7342 -130.43827,56.82222 -166.80203,86.31562 -19.26698,15.6268 -22.02678,16.94829 -17.64224,8.4479 z m -42.42345,-12.04402 c -21.76616,-115.91728 -24.26557,-194.49099 -7.14767,-224.6994 8.58345,-15.14745 14.95252,-14.51439 22.91053,2.27723 14.0754,29.69955 13.73215,79.81079 -1.21398,177.21879 -4.14,26.98176 -7.52731,50.32782 -7.52731,51.88013 0,7.00701 -5.41985,1.85331 -7.02157,-6.67675 z m 43.57312,-108.87521 c 6.46794,-63.80665 4.87155,-89.4979 -7.08312,-113.99126 -3.2413,-6.64091 -5.89327,-12.97438 -5.89327,-14.07439 0,-3.06484 14.41466,-2.37546 20.76021,0.99283 9.13803,4.85057 15.68087,32.44013 13.45773,56.74774 -2.21562,24.22528 -12.45143,67.19275 -18.49368,77.63214 -4.00401,6.91783 -4.15038,6.52863 -2.74787,-7.30706 z m -86.01004,-2.6996 c -6.30969,-13.73515 -12.97236,-53.12622 -13.17864,-77.91505 -0.2832,-34.01375 5.95656,-47.57419 22.50983,-48.91998 10.08643,-0.82003 11.17743,-0.30014 9.20054,4.38424 -1.23354,2.92303 -5.04164,11.89095 -8.46243,19.92872 -5.51225,12.95214 -6.19172,20.01556 -5.97465,62.11001 0.13467,26.12275 7.1e-4,47.4959 -0.29776,47.4959 -0.29849,0 -2.0071,-3.18775 -3.79689,-7.08384 z M 330.11469,603.09959 c -7.01494,-18.30001 -12.23454,-50.81784 -12.37817,-77.11525 -0.17534,-32.08901 6.64902,-56.37005 22.59034,-80.37766 12.55101,-18.90179 34.05781,-40.76092 36.95885,-37.56432 1.24309,1.36973 3.84326,11.03969 5.77816,21.48878 4.72308,25.5065 16.29592,63.27523 28.65894,93.53038 l 10.15191,24.84401 -6.76855,4.99578 c -3.72269,2.74766 -21.20032,15.24273 -38.83914,27.76683 -17.63885,12.52406 -34.52377,24.56049 -37.52206,26.74758 -4.88474,3.56316 -5.7819,3.11447 -8.63028,-4.31613 z m 338.34653,-9.72 c -10.58036,-7.94412 -29.01204,-20.64642 -40.95929,-28.2273 -11.94725,-7.5809 -22.21606,-14.17561 -22.81958,-14.65492 -0.60353,-0.47928 4.23654,-15.06888 10.75569,-32.42131 12.91018,-34.3637 21.9204,-65.17866 27.38595,-93.65986 1.92807,-10.04721 4.86591,-18.26765 6.52858,-18.26765 6.66335,0 32.48741,32.06356 43.54991,54.07225 13.48529,26.82884 18.78596,53.00784 15.97886,78.91625 -3.08722,28.49365 -13.29701,68.68637 -17.44777,68.68637 -2.05443,0 -12.39199,-6.49971 -22.97235,-14.44383 z M 454.7098,563.31635 C 433.54729,518.6003 415.98196,466.4812 404.95161,415.67599 c -7.32009,-33.71606 -8.10502,-43.04312 -8.18084,-97.21217 -0.0699,-49.97384 1.00318,-65.58365 6.46613,-94.05687 13.6441,-71.11398 42.68939,-139.794591 79.42212,-187.801863 27.0538,-35.357552 27.71564,-35.63603867 43.62019,-18.3537 42.30796,45.973016 81.21477,133.122693 96.18497,215.450523 8.12017,44.65629 8.82645,123.33428 1.46935,163.67817 -9.93714,54.49199 -28.97014,114.04772 -50.90768,159.29392 l -8.50274,17.53695 -51.95159,0.7967 -51.9516,0.79673 z m 92.89559,-279.91064 c 13.43072,-8.12191 21.31602,-22.18365 21.31602,-38.0125 0,-45.59337 -60.23137,-60.65316 -81.68088,-20.42288 -8.13264,15.25346 -8.33023,23.89388 -0.91678,40.09156 10.39202,22.70561 39.6074,31.45085 61.28164,18.34382 z"
       id="path118" />
    <path
       style="display:inline;fill:#0e0f0e;stroke-width:2.93484"
       d="M 465.8021,997.73228 C 410.99923,974.32151 328.01305,952.94409 250.6787,942.31594 197.58176,935.01879 95.36405,933.49404 47.655161,939.28745 25.946204,941.92364 7.6239673,943.52476 6.9391087,942.84547 5.7343293,941.65053 83.210698,764.20826 94.63487,741.99792 c 5.235839,-10.17926 6.848,-11.13105 22.04325,-13.01405 9.01686,-1.11739 17.04063,-1.39053 17.83061,-0.60698 0.79,0.78355 -13.22823,37.44071 -31.15164,81.46034 -17.923431,44.01964 -32.222978,81.83335 -31.776818,84.03053 0.650292,3.20233 13.379762,4.13486 64.169488,4.70086 99.5785,1.10968 169.16266,14.26008 254.90649,48.17364 37.25159,14.73382 102.99519,51.81507 109.02631,61.49394 2.95279,4.7387 -1.2458,3.437 -33.88046,-10.50392 z m 55.99102,12.16612 c 0,-0.7012 11.6034,-8.9727 25.78534,-18.38116 48.83201,-32.39565 105.44468,-55.81843 177.95049,-73.62471 53.63966,-13.17306 101.48658,-18.58931 168.15212,-19.03469 31.92393,-0.21337 58.79443,-1.13257 59.71221,-2.04285 1.57983,-1.56693 -6.22113,-21.54163 -48.24838,-123.54209 -9.86517,-23.94284 -17.93669,-44.18474 -17.93669,-44.98197 0,-3.06221 33.54343,2.16009 37.13366,5.78123 6.38616,6.44115 94.20033,206.27058 91.72403,208.72666 -0.8512,0.84423 -11.2954,0.10639 -23.20938,-1.63962 -36.2836,-5.31743 -127.12767,-7.10106 -167.53312,-3.28934 -103.30123,9.74504 -191.44854,29.56962 -269.09439,60.52005 -33.1389,13.20949 -34.43589,13.64299 -34.43589,11.50849 z M 506.06627,813.15183 c -10.21892,-58.65027 -13.63564,-90.98378 -13.68812,-129.53519 -0.0572,-42.00972 3.98287,-63.41596 14.36992,-76.13861 4.65229,-5.69845 6.25758,-6.17221 10.12544,-2.98841 18.08195,14.88413 20.87275,91.63011 6.63122,182.35679 -4.73138,30.14163 -9.47341,54.80296 -10.53786,54.80296 -1.06442,0 -4.16971,-12.82389 -6.9006,-28.49754 z M 556.176,692.2739 c 1.9123,-43.95594 -1.51659,-66.28425 -12.80256,-83.36812 -4.12819,-6.24894 -4.093,-7.03761 0.39005,-8.74387 7.99025,-3.04111 19.27438,3.99679 23.85964,14.88124 6.78455,16.10509 5.4514,54.62566 -3.03952,87.82441 -4.01871,15.71281 -7.96623,29.22287 -8.77229,30.02232 -0.80604,0.79945 -0.64192,-17.47773 0.36468,-40.61598 z m -88.44351,33.1932 c -4.50527,-7.23872 -11.11469,-41.22664 -12.64649,-65.03284 -2.64737,-41.14346 4.46868,-61.37931 21.58443,-61.37931 8.27951,0 8.26138,0.38684 -1.09454,23.3826 -4.38239,10.77136 -5.35145,21.48761 -5.35236,59.18818 -5.9e-4,25.31952 -0.25432,46.03504 -0.56389,46.03448 -0.30954,-5.5e-4 -1.17678,-0.98744 -1.92715,-2.19311 z M 330.32592,600.72777 c -5.41686,-14.13106 -11.86862,-55.39754 -11.86862,-75.91364 0,-39.24049 12.33986,-70.38321 39.73547,-100.28254 15.46626,-16.87972 22.14935,-18.51889 22.14935,-5.43262 0,11.8353 13.6148,60.49331 26.16902,93.52558 6.67734,17.56919 12.13826,33.35244 12.13535,35.07389 -0.003,1.72146 -6.18256,7.00081 -13.73257,11.73193 -7.55,4.73112 -25.97243,17.55501 -40.93875,28.49754 -14.96628,10.94252 -28.04793,19.89551 -29.07036,19.89551 -1.02239,0 -3.08289,-3.19303 -4.57889,-7.09565 z M 679.45205,600.237 c -4.86238,-4.04925 -23.69797,-17.25732 -41.85683,-29.35126 l -33.01616,-21.989 6.1581,-15.10974 c 11.34236,-27.83017 25.50069,-73.32723 30.85187,-99.14091 3.1055,-14.98079 6.76298,-25.57472 8.82949,-25.57472 4.99493,0 29.19263,27.94527 39.22834,45.30378 14.48441,25.05325 18.72426,45.08795 16.96246,80.15325 -1.57182,31.28439 -9.96299,70.72627 -15.36969,72.24377 -1.62079,0.45491 -6.9252,-2.48592 -11.78758,-6.53517 z M 460.59443,572.01883 c -1.64036,-2.00944 -8.26554,-16.14861 -14.72263,-31.42036 -39.02212,-92.29169 -55.65225,-182.41733 -48.29512,-261.73182 8.45214,-91.11983 33.99094,-167.0644 76.82511,-228.454434 25.32963,-36.30253 33.94178,-45.9485513 39.22754,-43.9368005 8.54827,3.2534834 43.70265,53.5289545 60.91835,87.1214715 19.16258,37.391343 34.75475,82.016003 44.91105,128.535083 5.76274,26.39524 6.69264,39.34657 6.81151,94.87044 0.15678,73.23457 -4.27081,102.46039 -25.14044,165.94688 -12.31746,37.47032 -33.76476,87.06024 -39.13469,90.4862 -6.14754,3.92208 -98.09117,2.63756 -101.40068,-1.41666 z m 94.6601,-242.92189 c 12.79964,-7.43982 29.99908,-24.65873 27.3024,-27.33335 -0.74975,-0.74365 -7.21974,2.05206 -14.37775,6.21267 -15.05425,8.75029 -42.67091,10.40402 -59.21935,3.54614 -14.89229,-6.17157 -30.96224,-21.68276 -39.23082,-37.8667 -10.02201,-19.61596 -8.99289,-46.48285 2.6317,-68.70573 9.51862,-18.19683 5.23475,-19.95397 -10.06846,-4.12983 -45.24487,46.78509 -27.18193,114.93548 35.9257,135.54551 14.01084,4.57574 43.0192,0.87892 57.03658,-7.26871 z m -9.84136,-43.51489 c 41.91771,-21.07325 27.34763,-85.00547 -19.37263,-85.00547 -41.74367,0 -61.10975,50.46367 -30.31124,78.98424 14.88471,13.78381 30.48281,15.67417 49.68387,6.02123 z"
       id="path117" />
  </g>
</svg>
