<?xml version="1.0" encoding="UTF-8"?>
<svg version="1.1" xmlns="http://www.w3.org/2000/svg" width="216" height="236">
<path d="M0 0 C71.28 0 142.56 0 216 0 C216 77.88 216 155.76 216 236 C144.72 236 73.44 236 0 236 C0 158.12 0 80.24 0 0 Z " fill="#FAFAFA" transform="translate(0,0)"/>
<path d="M0 0 C0.66 0 1.32 0 2 0 C2 0.66 2 1.32 2 2 C2.66 2 3.32 2 4 2 C4 2.66 4 3.32 4 4 C4.66 4 5.32 4 6 4 C6 4.66 6 5.32 6 6 C7.32 6 8.64 6 10 6 C10 6.66 10 7.32 10 8 C10.66 8 11.32 8 12 8 C12 8.66 12 9.32 12 10 C12.66 10 13.32 10 14 10 C14 10.66 14 11.32 14 12 C14.66 12 15.32 12 16 12 C16 12.66 16 13.32 16 14 C17.32 14 18.64 14 20 14 C20 14.66 20 15.32 20 16 C20.66 16 21.32 16 22 16 C22 16.66 22 17.32 22 18 C22.66 18 23.32 18 24 18 C24 18.66 24 19.32 24 20 C25.32 20 26.64 20 28 20 C28 20.66 28 21.32 28 22 C28.66 22 29.32 22 30 22 C30 22.66 30 23.32 30 24 C31.32 24 32.64 24 34 24 C34 24.66 34 25.32 34 26 C34.66 26 35.32 26 36 26 C36 26.66 36 27.32 36 28 C37.32 28 38.64 28 40 28 C40 28.66 40 29.32 40 30 C41.32 30 42.64 30 44 30 C44 30.66 44 31.32 44 32 C44.66 32 45.32 32 46 32 C46 32.66 46 33.32 46 34 C46.66 34 47.32 34 48 34 C48 34.66 48 35.32 48 36 C49.32 36 50.64 36 52 36 C52 36.66 52 37.32 52 38 C52.66 38 53.32 38 54 38 C54 38.66 54 39.32 54 40 C54.66 40 55.32 40 56 40 C56 40.66 56 41.32 56 42 C56.66 42 57.32 42 58 42 C58 42.66 58 43.32 58 44 C58.66 44 59.32 44 60 44 C60 44.66 60 45.32 60 46 C60.66 46 61.32 46 62 46 C62 46.66 62 47.32 62 48 C62.66 48 63.32 48 64 48 C64 48.66 64 49.32 64 50 C64.66 50 65.32 50 66 50 C66 50.66 66 51.32 66 52 C66.66 52 67.32 52 68 52 C68 52.66 68 53.32 68 54 C68.66 54 69.32 54 70 54 C70 54.66 70 55.32 70 56 C70.66 56 71.32 56 72 56 C72 57.32 72 58.64 72 60 C72.66 60 73.32 60 74 60 C74 60.66 74 61.32 74 62 C74.66 62 75.32 62 76 62 C76 63.32 76 64.64 76 66 C76.66 66 77.32 66 78 66 C78 67.32 78 68.64 78 70 C78.66 70 79.32 70 80 70 C80 71.32 80 72.64 80 74 C80.66 74 81.32 74 82 74 C82 75.98 82 77.96 82 80 C82.66 80 83.32 80 84 80 C84 106.4 84 132.8 84 160 C80.04 160 76.08 160 72 160 C72 160.66 72 161.32 72 162 C66.72 162 61.44 162 56 162 C56 162.66 56 163.32 56 164 C53.36 164 50.72 164 48 164 C48 164.66 48 165.32 48 166 C46.02 166 44.04 166 42 166 C42 166.66 42 167.32 42 168 C40.68 168 39.36 168 38 168 C38 168.66 38 169.32 38 170 C36.68 170 35.36 170 34 170 C34 170.66 34 171.32 34 172 C32.68 172 31.36 172 30 172 C30 172.66 30 173.32 30 174 C28.68 174 27.36 174 26 174 C26 174.66 26 175.32 26 176 C24.68 176 23.36 176 22 176 C22 176.66 22 177.32 22 178 C21.34 178 20.68 178 20 178 C20 178.66 20 179.32 20 180 C19.34 180 18.68 180 18 180 C18 180.66 18 181.32 18 182 C16.68 182 15.36 182 14 182 C14 182.66 14 183.32 14 184 C13.34 184 12.68 184 12 184 C12 184.66 12 185.32 12 186 C11.34 186 10.68 186 10 186 C10 186.66 10 187.32 10 188 C9.34 188 8.68 188 8 188 C8 188.66 8 189.32 8 190 C7.34 190 6.68 190 6 190 C6 190.66 6 191.32 6 192 C5.34 192 4.68 192 4 192 C4 193.32 4 194.64 4 196 C2.68 196 1.36 196 0 196 C0 195.34 0 194.68 0 194 C-0.66 194 -1.32 194 -2 194 C-2 193.34 -2 192.68 -2 192 C-2.66 192 -3.32 192 -4 192 C-4 191.34 -4 190.68 -4 190 C-4.66 190 -5.32 190 -6 190 C-6 189.34 -6 188.68 -6 188 C-6.66 188 -7.32 188 -8 188 C-8 187.34 -8 186.68 -8 186 C-8.66 186 -9.32 186 -10 186 C-10 185.34 -10 184.68 -10 184 C-10.66 184 -11.32 184 -12 184 C-12 183.34 -12 182.68 -12 182 C-12.66 182 -13.32 182 -14 182 C-14 181.34 -14 180.68 -14 180 C-14.66 180 -15.32 180 -16 180 C-16 179.34 -16 178.68 -16 178 C-17.32 178 -18.64 178 -20 178 C-20 177.34 -20 176.68 -20 176 C-21.32 176 -22.64 176 -24 176 C-24 175.34 -24 174.68 -24 174 C-25.32 174 -26.64 174 -28 174 C-28 173.34 -28 172.68 -28 172 C-29.32 172 -30.64 172 -32 172 C-32 171.34 -32 170.68 -32 170 C-33.32 170 -34.64 170 -36 170 C-36 169.34 -36 168.68 -36 168 C-37.98 168 -39.96 168 -42 168 C-42 167.34 -42 166.68 -42 166 C-43.32 166 -44.64 166 -46 166 C-46 165.34 -46 164.68 -46 164 C-48.64 164 -51.28 164 -54 164 C-54 163.34 -54 162.68 -54 162 C-57.3 162 -60.6 162 -64 162 C-64 161.34 -64 160.68 -64 160 C-69.28 160 -74.56 160 -80 160 C-80 134.26 -80 108.52 -80 82 C-79.34 82 -78.68 82 -78 82 C-78 79.36 -78 76.72 -78 74 C-77.34 74 -76.68 74 -76 74 C-76 72.02 -76 70.04 -76 68 C-75.34 68 -74.68 68 -74 68 C-74 66.68 -74 65.36 -74 64 C-73.34 64 -72.68 64 -72 64 C-72 63.34 -72 62.68 -72 62 C-71.34 62 -70.68 62 -70 62 C-70 60.68 -70 59.36 -70 58 C-69.34 58 -68.68 58 -68 58 C-68 56.68 -68 55.36 -68 54 C-67.34 54 -66.68 54 -66 54 C-66 53.34 -66 52.68 -66 52 C-65.34 52 -64.68 52 -64 52 C-64 51.34 -64 50.68 -64 50 C-63.34 50 -62.68 50 -62 50 C-62 49.34 -62 48.68 -62 48 C-61.34 48 -60.68 48 -60 48 C-60 47.34 -60 46.68 -60 46 C-59.34 46 -58.68 46 -58 46 C-58 45.34 -58 44.68 -58 44 C-57.34 44 -56.68 44 -56 44 C-56 43.34 -56 42.68 -56 42 C-55.34 42 -54.68 42 -54 42 C-54 41.34 -54 40.68 -54 40 C-52.68 40 -51.36 40 -50 40 C-50 39.34 -50 38.68 -50 38 C-49.34 38 -48.68 38 -48 38 C-48 37.34 -48 36.68 -48 36 C-47.34 36 -46.68 36 -46 36 C-46 35.34 -46 34.68 -46 34 C-45.34 34 -44.68 34 -44 34 C-44 33.34 -44 32.68 -44 32 C-42.68 32 -41.36 32 -40 32 C-40 31.34 -40 30.68 -40 30 C-39.34 30 -38.68 30 -38 30 C-38 29.34 -38 28.68 -38 28 C-36.68 28 -35.36 28 -34 28 C-34 27.34 -34 26.68 -34 26 C-33.34 26 -32.68 26 -32 26 C-32 25.34 -32 24.68 -32 24 C-30.68 24 -29.36 24 -28 24 C-28 23.34 -28 22.68 -28 22 C-27.34 22 -26.68 22 -26 22 C-26 21.34 -26 20.68 -26 20 C-24.68 20 -23.36 20 -22 20 C-22 19.34 -22 18.68 -22 18 C-21.34 18 -20.68 18 -20 18 C-20 17.34 -20 16.68 -20 16 C-18.68 16 -17.36 16 -16 16 C-16 15.34 -16 14.68 -16 14 C-15.34 14 -14.68 14 -14 14 C-14 13.34 -14 12.68 -14 12 C-13.34 12 -12.68 12 -12 12 C-12 11.34 -12 10.68 -12 10 C-10.68 10 -9.36 10 -8 10 C-8 9.34 -8 8.68 -8 8 C-7.34 8 -6.68 8 -6 8 C-6 7.34 -6 6.68 -6 6 C-5.34 6 -4.68 6 -4 6 C-4 5.34 -4 4.68 -4 4 C-3.34 4 -2.68 4 -2 4 C-2 3.34 -2 2.68 -2 2 C-1.34 2 -0.68 2 0 2 C0 1.34 0 0.68 0 0 Z " fill="#F6F7F7" transform="translate(107,21)"/>
<path d="M0 0 C0.66 0 1.32 0 2 0 C2 0.66 2 1.32 2 2 C2.66 2 3.32 2 4 2 C4 2.66 4 3.32 4 4 C4.66 4 5.32 4 6 4 C6 4.66 6 5.32 6 6 C7.32 6 8.64 6 10 6 C10 6.66 10 7.32 10 8 C10.66 8 11.32 8 12 8 C12 8.66 12 9.32 12 10 C12.66 10 13.32 10 14 10 C14 10.66 14 11.32 14 12 C14.66 12 15.32 12 16 12 C16 12.66 16 13.32 16 14 C17.32 14 18.64 14 20 14 C20 14.66 20 15.32 20 16 C20.66 16 21.32 16 22 16 C22 16.66 22 17.32 22 18 C22.66 18 23.32 18 24 18 C24 18.66 24 19.32 24 20 C25.32 20 26.64 20 28 20 C28 20.66 28 21.32 28 22 C28.66 22 29.32 22 30 22 C30 22.66 30 23.32 30 24 C31.32 24 32.64 24 34 24 C34 24.66 34 25.32 34 26 C34.66 26 35.32 26 36 26 C36 26.66 36 27.32 36 28 C37.32 28 38.64 28 40 28 C40 28.66 40 29.32 40 30 C41.32 30 42.64 30 44 30 C44 30.66 44 31.32 44 32 C44.66 32 45.32 32 46 32 C46 32.66 46 33.32 46 34 C46.66 34 47.32 34 48 34 C48 34.66 48 35.32 48 36 C49.32 36 50.64 36 52 36 C52 36.66 52 37.32 52 38 C52.66 38 53.32 38 54 38 C54 38.66 54 39.32 54 40 C54.66 40 55.32 40 56 40 C56 40.66 56 41.32 56 42 C56.66 42 57.32 42 58 42 C58 42.66 58 43.32 58 44 C58.66 44 59.32 44 60 44 C60 44.66 60 45.32 60 46 C60.66 46 61.32 46 62 46 C62 46.66 62 47.32 62 48 C62.66 48 63.32 48 64 48 C64 48.66 64 49.32 64 50 C64.66 50 65.32 50 66 50 C66 50.66 66 51.32 66 52 C66.66 52 67.32 52 68 52 C68 52.66 68 53.32 68 54 C68.66 54 69.32 54 70 54 C70 54.66 70 55.32 70 56 C70.66 56 71.32 56 72 56 C72 57.32 72 58.64 72 60 C72.66 60 73.32 60 74 60 C74 60.66 74 61.32 74 62 C74.66 62 75.32 62 76 62 C76 63.32 76 64.64 76 66 C76.66 66 77.32 66 78 66 C78 67.32 78 68.64 78 70 C78.66 70 79.32 70 80 70 C80 71.32 80 72.64 80 74 C80.66 74 81.32 74 82 74 C82 75.98 82 77.96 82 80 C82.66 80 83.32 80 84 80 C84 106.4 84 132.8 84 160 C80.04 160 76.08 160 72 160 C72 160.66 72 161.32 72 162 C66.72 162 61.44 162 56 162 C56 162.66 56 163.32 56 164 C53.36 164 50.72 164 48 164 C48 164.66 48 165.32 48 166 C46.02 166 44.04 166 42 166 C42 166.66 42 167.32 42 168 C40.68 168 39.36 168 38 168 C38 168.66 38 169.32 38 170 C36.68 170 35.36 170 34 170 C34 170.66 34 171.32 34 172 C32.68 172 31.36 172 30 172 C30 172.66 30 173.32 30 174 C28.68 174 27.36 174 26 174 C26 174.66 26 175.32 26 176 C24.68 176 23.36 176 22 176 C22 176.66 22 177.32 22 178 C21.34 178 20.68 178 20 178 C20 178.66 20 179.32 20 180 C19.34 180 18.68 180 18 180 C18 180.66 18 181.32 18 182 C16.68 182 15.36 182 14 182 C14 182.66 14 183.32 14 184 C13.34 184 12.68 184 12 184 C12 184.66 12 185.32 12 186 C11.34 186 10.68 186 10 186 C10 186.66 10 187.32 10 188 C9.34 188 8.68 188 8 188 C8 188.66 8 189.32 8 190 C7.34 190 6.68 190 6 190 C6 190.66 6 191.32 6 192 C5.34 192 4.68 192 4 192 C4 193.32 4 194.64 4 196 C2.68 196 1.36 196 0 196 C0 195.34 0 194.68 0 194 C-0.66 194 -1.32 194 -2 194 C-2 193.34 -2 192.68 -2 192 C-2.66 192 -3.32 192 -4 192 C-4 191.34 -4 190.68 -4 190 C-4.66 190 -5.32 190 -6 190 C-6 189.34 -6 188.68 -6 188 C-6.66 188 -7.32 188 -8 188 C-8 187.34 -8 186.68 -8 186 C-8.66 186 -9.32 186 -10 186 C-10 185.34 -10 184.68 -10 184 C-10.66 184 -11.32 184 -12 184 C-12 183.34 -12 182.68 -12 182 C-12.66 182 -13.32 182 -14 182 C-14 181.34 -14 180.68 -14 180 C-14.66 180 -15.32 180 -16 180 C-16 179.34 -16 178.68 -16 178 C-17.32 178 -18.64 178 -20 178 C-20 177.34 -20 176.68 -20 176 C-21.32 176 -22.64 176 -24 176 C-24 175.34 -24 174.68 -24 174 C-25.32 174 -26.64 174 -28 174 C-28 173.34 -28 172.68 -28 172 C-29.32 172 -30.64 172 -32 172 C-32 171.34 -32 170.68 -32 170 C-33.32 170 -34.64 170 -36 170 C-36 169.34 -36 168.68 -36 168 C-37.98 168 -39.96 168 -42 168 C-42 167.34 -42 166.68 -42 166 C-43.32 166 -44.64 166 -46 166 C-46 165.34 -46 164.68 -46 164 C-48.64 164 -51.28 164 -54 164 C-54 163.34 -54 162.68 -54 162 C-57.3 162 -60.6 162 -64 162 C-64 161.34 -64 160.68 -64 160 C-69.28 160 -74.56 160 -80 160 C-80 134.26 -80 108.52 -80 82 C-79.34 82 -78.68 82 -78 82 C-78 79.36 -78 76.72 -78 74 C-77.34 74 -76.68 74 -76 74 C-76 72.02 -76 70.04 -76 68 C-75.34 68 -74.68 68 -74 68 C-74 66.68 -74 65.36 -74 64 C-73.34 64 -72.68 64 -72 64 C-72 63.34 -72 62.68 -72 62 C-71.34 62 -70.68 62 -70 62 C-70 60.68 -70 59.36 -70 58 C-69.34 58 -68.68 58 -68 58 C-68 56.68 -68 55.36 -68 54 C-67.34 54 -66.68 54 -66 54 C-66 53.34 -66 52.68 -66 52 C-65.34 52 -64.68 52 -64 52 C-64 51.34 -64 50.68 -64 50 C-63.34 50 -62.68 50 -62 50 C-62 49.34 -62 48.68 -62 48 C-61.34 48 -60.68 48 -60 48 C-60 47.34 -60 46.68 -60 46 C-59.34 46 -58.68 46 -58 46 C-58 45.34 -58 44.68 -58 44 C-57.34 44 -56.68 44 -56 44 C-56 43.34 -56 42.68 -56 42 C-55.34 42 -54.68 42 -54 42 C-54 41.34 -54 40.68 -54 40 C-52.68 40 -51.36 40 -50 40 C-50 39.34 -50 38.68 -50 38 C-49.34 38 -48.68 38 -48 38 C-48 37.34 -48 36.68 -48 36 C-47.34 36 -46.68 36 -46 36 C-46 35.34 -46 34.68 -46 34 C-45.34 34 -44.68 34 -44 34 C-44 33.34 -44 32.68 -44 32 C-42.68 32 -41.36 32 -40 32 C-40 31.34 -40 30.68 -40 30 C-39.34 30 -38.68 30 -38 30 C-38 29.34 -38 28.68 -38 28 C-36.68 28 -35.36 28 -34 28 C-34 27.34 -34 26.68 -34 26 C-33.34 26 -32.68 26 -32 26 C-32 25.34 -32 24.68 -32 24 C-30.68 24 -29.36 24 -28 24 C-28 23.34 -28 22.68 -28 22 C-27.34 22 -26.68 22 -26 22 C-26 21.34 -26 20.68 -26 20 C-24.68 20 -23.36 20 -22 20 C-22 19.34 -22 18.68 -22 18 C-21.34 18 -20.68 18 -20 18 C-20 17.34 -20 16.68 -20 16 C-18.68 16 -17.36 16 -16 16 C-16 15.34 -16 14.68 -16 14 C-15.34 14 -14.68 14 -14 14 C-14 13.34 -14 12.68 -14 12 C-13.34 12 -12.68 12 -12 12 C-12 11.34 -12 10.68 -12 10 C-10.68 10 -9.36 10 -8 10 C-8 9.34 -8 8.68 -8 8 C-7.34 8 -6.68 8 -6 8 C-6 7.34 -6 6.68 -6 6 C-5.34 6 -4.68 6 -4 6 C-4 5.34 -4 4.68 -4 4 C-3.34 4 -2.68 4 -2 4 C-2 3.34 -2 2.68 -2 2 C-1.34 2 -0.68 2 0 2 C0 1.34 0 0.68 0 0 Z M0 22 C0 22.66 0 23.32 0 24 C-1.32 24 -2.64 24 -4 24 C-4 24.66 -4 25.32 -4 26 C-4.66 26 -5.32 26 -6 26 C-6 26.66 -6 27.32 -6 28 C-6.66 28 -7.32 28 -8 28 C-8 28.66 -8 29.32 -8 30 C-9.32 30 -10.64 30 -12 30 C-12 30.66 -12 31.32 -12 32 C-12.66 32 -13.32 32 -14 32 C-14 32.66 -14 33.32 -14 34 C-14.66 34 -15.32 34 -16 34 C-16 34.66 -16 35.32 -16 36 C-17.32 36 -18.64 36 -20 36 C-20 36.66 -20 37.32 -20 38 C-20.66 38 -21.32 38 -22 38 C-22 38.66 -22 39.32 -22 40 C-23.32 40 -24.64 40 -26 40 C-26 40.66 -26 41.32 -26 42 C-26.66 42 -27.32 42 -28 42 C-28 42.66 -28 43.32 -28 44 C-29.32 44 -30.64 44 -32 44 C-32 44.66 -32 45.32 -32 46 C-32.66 46 -33.32 46 -34 46 C-34 46.66 -34 47.32 -34 48 C-34.66 48 -35.32 48 -36 48 C-36 48.66 -36 49.32 -36 50 C-36.66 50 -37.32 50 -38 50 C-38 50.66 -38 51.32 -38 52 C-39.32 52 -40.64 52 -42 52 C-42 52.66 -42 53.32 -42 54 C-42.66 54 -43.32 54 -44 54 C-44 54.66 -44 55.32 -44 56 C-44.66 56 -45.32 56 -46 56 C-46 56.66 -46 57.32 -46 58 C-46.66 58 -47.32 58 -48 58 C-48 58.66 -48 59.32 -48 60 C-48.66 60 -49.32 60 -50 60 C-50 60.66 -50 61.32 -50 62 C-50.66 62 -51.32 62 -52 62 C-52 62.66 -52 63.32 -52 64 C-52.66 64 -53.32 64 -54 64 C-54 64.66 -54 65.32 -54 66 C-54.66 66 -55.32 66 -56 66 C-56 67.32 -56 68.64 -56 70 C-56.66 70 -57.32 70 -58 70 C-58 70.66 -58 71.32 -58 72 C-58.66 72 -59.32 72 -60 72 C-60 73.32 -60 74.64 -60 76 C-60.66 76 -61.32 76 -62 76 C-62 77.32 -62 78.64 -62 80 C-62.66 80 -63.32 80 -64 80 C-64 101.78 -64 123.56 -64 146 C-62.02 146 -60.04 146 -58 146 C-58 146.66 -58 147.32 -58 148 C-52.72 148 -47.44 148 -42 148 C-42 148.66 -42 149.32 -42 150 C-40.02 150 -38.04 150 -36 150 C-36 150.66 -36 151.32 -36 152 C-34.02 152 -32.04 152 -30 152 C-30 152.66 -30 153.32 -30 154 C-28.68 154 -27.36 154 -26 154 C-26 154.66 -26 155.32 -26 156 C-24.68 156 -23.36 156 -22 156 C-22 156.66 -22 157.32 -22 158 C-20.68 158 -19.36 158 -18 158 C-18 158.66 -18 159.32 -18 160 C-17.34 160 -16.68 160 -16 160 C-16 160.66 -16 161.32 -16 162 C-14.68 162 -13.36 162 -12 162 C-12 162.66 -12 163.32 -12 164 C-11.34 164 -10.68 164 -10 164 C-10 164.66 -10 165.32 -10 166 C-9.34 166 -8.68 166 -8 166 C-8 166.66 -8 167.32 -8 168 C-6.68 168 -5.36 168 -4 168 C-4 168.66 -4 169.32 -4 170 C-3.34 170 -2.68 170 -2 170 C-2 170.66 -2 171.32 -2 172 C-1.34 172 -0.68 172 0 172 C0 172.66 0 173.32 0 174 C1.32 174 2.64 174 4 174 C4 173.34 4 172.68 4 172 C4.66 172 5.32 172 6 172 C6 171.34 6 170.68 6 170 C7.32 170 8.64 170 10 170 C10 169.34 10 168.68 10 168 C10.66 168 11.32 168 12 168 C12 167.34 12 166.68 12 166 C12.66 166 13.32 166 14 166 C14 165.34 14 164.68 14 164 C14.66 164 15.32 164 16 164 C16 163.34 16 162.68 16 162 C17.32 162 18.64 162 20 162 C20 161.34 20 160.68 20 160 C20.66 160 21.32 160 22 160 C22 159.34 22 158.68 22 158 C22.66 158 23.32 158 24 158 C24 157.34 24 156.68 24 156 C25.32 156 26.64 156 28 156 C28 155.34 28 154.68 28 154 C29.32 154 30.64 154 32 154 C32 153.34 32 152.68 32 152 C33.32 152 34.64 152 36 152 C36 151.34 36 150.68 36 150 C37.98 150 39.96 150 42 150 C42 149.34 42 148.68 42 148 C49.92 148 57.84 148 66 148 C66 147.34 66 146.68 66 146 C66.66 146 67.32 146 68 146 C68 126.2 68 106.4 68 86 C67.34 86 66.68 86 66 86 C66 84.02 66 82.04 66 80 C65.34 80 64.68 80 64 80 C64 78.68 64 77.36 64 76 C63.34 76 62.68 76 62 76 C62 74.68 62 73.36 62 72 C61.34 72 60.68 72 60 72 C60 70.68 60 69.36 60 68 C59.34 68 58.68 68 58 68 C58 67.34 58 66.68 58 66 C57.34 66 56.68 66 56 66 C56 64.68 56 63.36 56 62 C55.34 62 54.68 62 54 62 C54 61.34 54 60.68 54 60 C53.34 60 52.68 60 52 60 C52 59.34 52 58.68 52 58 C51.34 58 50.68 58 50 58 C50 57.34 50 56.68 50 56 C48.68 56 47.36 56 46 56 C46 55.34 46 54.68 46 54 C45.34 54 44.68 54 44 54 C44 53.34 44 52.68 44 52 C43.34 52 42.68 52 42 52 C42 51.34 42 50.68 42 50 C41.34 50 40.68 50 40 50 C40 49.34 40 48.68 40 48 C38.68 48 37.36 48 36 48 C36 47.34 36 46.68 36 46 C35.34 46 34.68 46 34 46 C34 45.34 34 44.68 34 44 C33.34 44 32.68 44 32 44 C32 43.34 32 42.68 32 42 C30.68 42 29.36 42 28 42 C28 41.34 28 40.68 28 40 C27.34 40 26.68 40 26 40 C26 39.34 26 38.68 26 38 C24.68 38 23.36 38 22 38 C22 37.34 22 36.68 22 36 C21.34 36 20.68 36 20 36 C20 35.34 20 34.68 20 34 C19.34 34 18.68 34 18 34 C18 33.34 18 32.68 18 32 C16.68 32 15.36 32 14 32 C14 31.34 14 30.68 14 30 C13.34 30 12.68 30 12 30 C12 29.34 12 28.68 12 28 C10.68 28 9.36 28 8 28 C8 27.34 8 26.68 8 26 C7.34 26 6.68 26 6 26 C6 25.34 6 24.68 6 24 C5.34 24 4.68 24 4 24 C4 23.34 4 22.68 4 22 C2.68 22 1.36 22 0 22 Z " fill="#2C5E42" transform="translate(107,21)"/>
<path d="M0 0 C3.96 0 7.92 0 12 0 C12 0.66 12 1.32 12 2 C14.64 2 17.28 2 20 2 C20 2.66 20 3.32 20 4 C21.98 4 23.96 4 26 4 C26 4.66 26 5.32 26 6 C27.32 6 28.64 6 30 6 C30 6.66 30 7.32 30 8 C31.98 8 33.96 8 36 8 C36 8.66 36 9.32 36 10 C36.66 10 37.32 10 38 10 C38 10.66 38 11.32 38 12 C39.32 12 40.64 12 42 12 C42 12.66 42 13.32 42 14 C43.32 14 44.64 14 46 14 C46 14.66 46 15.32 46 16 C46.66 16 47.32 16 48 16 C48 16.66 48 17.32 48 18 C48.66 18 49.32 18 50 18 C50 18.66 50 19.32 50 20 C50.66 20 51.32 20 52 20 C52 20.66 52 21.32 52 22 C52.66 22 53.32 22 54 22 C54 22.66 54 23.32 54 24 C55.32 24 56.64 24 58 24 C58 23.34 58 22.68 58 22 C58.66 22 59.32 22 60 22 C60 21.34 60 20.68 60 20 C60.66 20 61.32 20 62 20 C62 19.34 62 18.68 62 18 C62.66 18 63.32 18 64 18 C64 17.34 64 16.68 64 16 C64.66 16 65.32 16 66 16 C66 15.34 66 14.68 66 14 C67.32 14 68.64 14 70 14 C70 13.34 70 12.68 70 12 C70.66 12 71.32 12 72 12 C72 11.34 72 10.68 72 10 C73.32 10 74.64 10 76 10 C76 9.34 76 8.68 76 8 C77.32 8 78.64 8 80 8 C80 7.34 80 6.68 80 6 C81.32 6 82.64 6 84 6 C84 5.34 84 4.68 84 4 C86.64 4 89.28 4 92 4 C92 3.34 92 2.68 92 2 C93.32 2 94.64 2 96 2 C96 1.34 96 0.68 96 0 C101.28 0 106.56 0 112 0 C112 16.5 112 33 112 50 C110.02 50 108.04 50 106 50 C106 50.66 106 51.32 106 52 C102.7 52 99.4 52 96 52 C96 52.66 96 53.32 96 54 C94.02 54 92.04 54 90 54 C90 54.66 90 55.32 90 56 C88.68 56 87.36 56 86 56 C86 56.66 86 57.32 86 58 C83.36 58 80.72 58 78 58 C78 58.66 78 59.32 78 60 C76.68 60 75.36 60 74 60 C74 60.66 74 61.32 74 62 C73.34 62 72.68 62 72 62 C72 62.66 72 63.32 72 64 C70.68 64 69.36 64 68 64 C68 64.66 68 65.32 68 66 C67.34 66 66.68 66 66 66 C66 66.66 66 67.32 66 68 C65.34 68 64.68 68 64 68 C64 68.66 64 69.32 64 70 C62.68 70 61.36 70 60 70 C60 70.66 60 71.32 60 72 C59.34 72 58.68 72 58 72 C58 72.66 58 73.32 58 74 C56.02 74 54.04 74 52 74 C52 73.34 52 72.68 52 72 C51.34 72 50.68 72 50 72 C50 71.34 50 70.68 50 70 C49.34 70 48.68 70 48 70 C48 69.34 48 68.68 48 68 C47.34 68 46.68 68 46 68 C46 67.34 46 66.68 46 66 C45.34 66 44.68 66 44 66 C44 65.34 44 64.68 44 64 C42.68 64 41.36 64 40 64 C40 63.34 40 62.68 40 62 C38.02 62 36.04 62 34 62 C34 61.34 34 60.68 34 60 C32.68 60 31.36 60 30 60 C30 59.34 30 58.68 30 58 C28.68 58 27.36 58 26 58 C26 57.34 26 56.68 26 56 C24.02 56 22.04 56 20 56 C20 55.34 20 54.68 20 54 C18.02 54 16.04 54 14 54 C14 53.34 14 52.68 14 52 C12.02 52 10.04 52 8 52 C8 51.34 8 50.68 8 50 C5.36 50 2.72 50 0 50 C0 33.5 0 17 0 0 Z " fill="#295D40" transform="translate(53,109)"/>
<path d="M0 0 C0.66 0 1.32 0 2 0 C2 1.98 2 3.96 2 6 C2.66 6 3.32 6 4 6 C4 32.4 4 58.8 4 86 C3.34 86 2.68 86 2 86 C2 60.26 2 34.52 2 8 C1.34 8 0.68 8 0 8 C0 5.36 0 2.72 0 0 Z " fill="#678572" transform="translate(187,95)"/>
<path d="M0 0 C0.66 0 1.32 0 2 0 C2 24.42 2 48.84 2 74 C5.3 74 8.6 74 12 74 C12 74.66 12 75.32 12 76 C8.04 76 4.08 76 0 76 C0 50.92 0 25.84 0 0 Z " fill="#1A4126" transform="translate(27,105)"/>
<path d="M0 0 C0.66 0 1.32 0 2 0 C2 19.8 2 39.6 2 60 C1.34 60 0.68 60 0 60 C0 60.66 0 61.32 0 62 C-5.28 62 -10.56 62 -16 62 C-16 61.34 -16 60.68 -16 60 C-12.7 60 -9.4 60 -6 60 C-6 59.34 -6 58.68 -6 58 C-4.02 58 -2.04 58 0 58 C0 38.86 0 19.72 0 0 Z " fill="#93AC9F" transform="translate(173,107)"/>
<path d="M0 0 C0.66 0 1.32 0 2 0 C2 21.12 2 42.24 2 64 C3.98 64 5.96 64 8 64 C8 64.66 8 65.32 8 66 C10.64 66 13.28 66 16 66 C16 66.66 16 67.32 16 68 C12.7 68 9.4 68 6 68 C6 67.34 6 66.68 6 66 C4.02 66 2.04 66 0 66 C0 44.22 0 22.44 0 0 Z " fill="#BDCCC4" transform="translate(43,101)"/>
<path d="M0 0 C5.28 0 10.56 0 16 0 C16 16.5 16 33 16 50 C15.34 50 14.68 50 14 50 C14 34.16 14 18.32 14 2 C9.38 2 4.76 2 0 2 C0 1.34 0 0.68 0 0 Z " fill="#719180" transform="translate(149,109)"/>
<path d="M0 0 C2.64 0 5.28 0 8 0 C8 15.18 8 30.36 8 46 C7.34 46 6.68 46 6 46 C6 31.48 6 16.96 6 2 C4.02 2 2.04 2 0 2 C0 1.34 0 0.68 0 0 Z " fill="#215134" transform="translate(155,111)"/>
<path d="M0 0 C2.64 0 5.28 0 8 0 C8 0.66 8 1.32 8 2 C6.02 2 4.04 2 2 2 C2 2.66 2 3.32 2 4 C0.68 4 -0.64 4 -2 4 C-2 4.66 -2 5.32 -2 6 C-4.64 6 -7.28 6 -10 6 C-10 5.34 -10 4.68 -10 4 C-8.68 4 -7.36 4 -6 4 C-6 3.34 -6 2.68 -6 2 C-4.02 2 -2.04 2 0 2 C0 1.34 0 0.68 0 0 Z " fill="#6C8A78" transform="translate(149,169)"/>
<path d="M0 0 C1.32 0 2.64 0 4 0 C4 0.66 4 1.32 4 2 C5.98 2 7.96 2 10 2 C10 2.66 10 3.32 10 4 C9.34 4 8.68 4 8 4 C8 4.66 8 5.32 8 6 C6.68 6 5.36 6 4 6 C4 5.34 4 4.68 4 4 C3.34 4 2.68 4 2 4 C2 3.34 2 2.68 2 2 C1.34 2 0.68 2 0 2 C0 1.34 0 0.68 0 0 Z " fill="#CAD3CE" transform="translate(103,127)"/>
<path d="M0 0 C0.66 0 1.32 0 2 0 C2 1.98 2 3.96 2 6 C2.66 6 3.32 6 4 6 C4 8.64 4 11.28 4 14 C3.34 14 2.68 14 2 14 C2 12.02 2 10.04 2 8 C1.34 8 0.68 8 0 8 C0 5.36 0 2.72 0 0 Z " fill="#7F9888" transform="translate(187,95)"/>
<path d="M0 0 C1.32 0 2.64 0 4 0 C4 0.66 4 1.32 4 2 C3.34 2 2.68 2 2 2 C2 2.66 2 3.32 2 4 C1.34 4 0.68 4 0 4 C0 4.66 0 5.32 0 6 C-1.32 6 -2.64 6 -4 6 C-4 5.34 -4 4.68 -4 4 C-3.34 4 -2.68 4 -2 4 C-2 3.34 -2 2.68 -2 2 C-1.34 2 -0.68 2 0 2 C0 1.34 0 0.68 0 0 Z " fill="#C6D1CA" transform="translate(121,203)"/>
<path d="M0 0 C2.64 0 5.28 0 8 0 C8 0.66 8 1.32 8 2 C8.66 2 9.32 2 10 2 C10 2.66 10 3.32 10 4 C8.68 4 7.36 4 6 4 C6 3.34 6 2.68 6 2 C4.02 2 2.04 2 0 2 C0 1.34 0 0.68 0 0 Z " fill="#60806B" transform="translate(61,159)"/>
<path d="M0 0 C1.32 0 2.64 0 4 0 C4 0.66 4 1.32 4 2 C3.34 2 2.68 2 2 2 C2 2.66 2 3.32 2 4 C1.34 4 0.68 4 0 4 C0 4.66 0 5.32 0 6 C-1.32 6 -2.64 6 -4 6 C-4 5.34 -4 4.68 -4 4 C-3.34 4 -2.68 4 -2 4 C-2 3.34 -2 2.68 -2 2 C-1.34 2 -0.68 2 0 2 C0 1.34 0 0.68 0 0 Z " fill="#CFD8D3" transform="translate(103,45)"/>
</svg>
